<mxfile host="Electron" modified="2023-09-29T08:03:14.190Z" agent="Mozilla/5.0 (Windows NT 10.0; Win64; x64) AppleWebKit/537.36 (KHTML, like Gecko) draw.io/21.7.5 Chrome/114.0.5735.289 Electron/25.8.1 Safari/537.36" etag="6YtssHeuWEQ8GUdXuWlI" version="21.7.5" type="device">
  <diagram name="Page-1" id="Y7wi4KWkLnSEOSLbvD3w">
    <mxGraphModel dx="3276" dy="911" grid="1" gridSize="10" guides="1" tooltips="1" connect="1" arrows="1" fold="1" page="1" pageScale="1" pageWidth="850" pageHeight="1100" math="0" shadow="0">
      <root>
        <mxCell id="0" />
        <mxCell id="1" parent="0" />
        <mxCell id="pGzdC_9W3K5xxJKS2U8a-5" value="Region [Mumbai]" style="points=[[0,0],[0.25,0],[0.5,0],[0.75,0],[1,0],[1,0.25],[1,0.5],[1,0.75],[1,1],[0.75,1],[0.5,1],[0.25,1],[0,1],[0,0.75],[0,0.5],[0,0.25]];outlineConnect=0;gradientColor=none;html=1;whiteSpace=wrap;fontSize=12;fontStyle=0;container=1;pointerEvents=0;collapsible=0;recursiveResize=0;shape=mxgraph.aws4.group;grIcon=mxgraph.aws4.group_region;strokeColor=#147EBA;fillColor=none;verticalAlign=top;align=left;spacingLeft=30;fontColor=#147EBA;dashed=1;" parent="1" vertex="1">
          <mxGeometry x="-1410" y="120" width="1400" height="770" as="geometry" />
        </mxCell>
        <mxCell id="pGzdC_9W3K5xxJKS2U8a-4" value="VPC" style="points=[[0,0],[0.25,0],[0.5,0],[0.75,0],[1,0],[1,0.25],[1,0.5],[1,0.75],[1,1],[0.75,1],[0.5,1],[0.25,1],[0,1],[0,0.75],[0,0.5],[0,0.25]];outlineConnect=0;gradientColor=none;html=1;whiteSpace=wrap;fontSize=12;fontStyle=0;container=1;pointerEvents=0;collapsible=0;recursiveResize=0;shape=mxgraph.aws4.group;grIcon=mxgraph.aws4.group_vpc;strokeColor=#248814;fillColor=none;verticalAlign=top;align=left;spacingLeft=30;fontColor=#AAB7B8;dashed=0;" parent="pGzdC_9W3K5xxJKS2U8a-5" vertex="1">
          <mxGeometry x="30" y="40" width="1350" height="690" as="geometry" />
        </mxCell>
        <mxCell id="z8xeSYhRxmCJGiF4I9nz-37" value="" style="shape=image;verticalLabelPosition=bottom;labelBackgroundColor=default;verticalAlign=top;aspect=fixed;imageAspect=0;image=https://o.remove.bg/downloads/6f60f4dd-db0d-46fa-9847-877a87a5db8b/image-removebg-preview.png;" vertex="1" parent="pGzdC_9W3K5xxJKS2U8a-4">
          <mxGeometry x="580.66" y="310.65999999999997" width="93.68" height="34.34" as="geometry" />
        </mxCell>
        <mxCell id="pGzdC_9W3K5xxJKS2U8a-11" value="Frontend LB" style="sketch=0;outlineConnect=0;fontColor=#FFFFFF;gradientColor=none;fillColor=#8C4FFF;strokeColor=none;dashed=0;verticalLabelPosition=bottom;verticalAlign=top;align=center;html=1;fontSize=12;fontStyle=0;aspect=fixed;pointerEvents=1;shape=mxgraph.aws4.application_load_balancer;container=0;" parent="1" vertex="1">
          <mxGeometry x="-1360" y="515" width="74" height="74" as="geometry" />
        </mxCell>
        <mxCell id="pGzdC_9W3K5xxJKS2U8a-7" value="EC2 Frontend" style="points=[[0,0],[0.25,0],[0.5,0],[0.75,0],[1,0],[1,0.25],[1,0.5],[1,0.75],[1,1],[0.75,1],[0.5,1],[0.25,1],[0,1],[0,0.75],[0,0.5],[0,0.25]];outlineConnect=0;gradientColor=none;html=1;whiteSpace=wrap;fontSize=12;fontStyle=0;container=0;pointerEvents=0;collapsible=0;recursiveResize=0;shape=mxgraph.aws4.group;grIcon=mxgraph.aws4.group_ec2_instance_contents;strokeColor=#D86613;fillColor=none;verticalAlign=top;align=left;spacingLeft=30;fontColor=#D86613;dashed=0;" parent="1" vertex="1">
          <mxGeometry x="-1190" y="385" width="330" height="345" as="geometry" />
        </mxCell>
        <mxCell id="z8xeSYhRxmCJGiF4I9nz-13" value="" style="endArrow=none;dashed=1;html=1;rounded=0;entryX=0;entryY=0.5;entryDx=0;entryDy=0;entryPerimeter=0;strokeWidth=3;flowAnimation=1;" edge="1" parent="1" target="pGzdC_9W3K5xxJKS2U8a-2">
          <mxGeometry width="50" height="50" relative="1" as="geometry">
            <mxPoint x="-1286" y="545" as="sourcePoint" />
            <mxPoint x="-1236" y="495" as="targetPoint" />
          </mxGeometry>
        </mxCell>
        <mxCell id="z8xeSYhRxmCJGiF4I9nz-16" value="" style="endArrow=none;dashed=1;html=1;rounded=0;strokeWidth=3;flowAnimation=1;" edge="1" parent="1" source="pGzdC_9W3K5xxJKS2U8a-11" target="z8xeSYhRxmCJGiF4I9nz-1">
          <mxGeometry width="50" height="50" relative="1" as="geometry">
            <mxPoint x="-1276" y="555" as="sourcePoint" />
            <mxPoint x="-1150" y="502" as="targetPoint" />
          </mxGeometry>
        </mxCell>
        <mxCell id="z8xeSYhRxmCJGiF4I9nz-6" value="Public IP : 3.109.55.137&lt;br&gt;Private IP : 172.31.12.91&lt;br&gt;&lt;div style=&quot;&quot;&gt;&lt;span style=&quot;background-color: initial;&quot;&gt;Availability zone : ap-south-1b&lt;/span&gt;&lt;/div&gt;" style="text;html=1;align=left;verticalAlign=middle;resizable=0;points=[];autosize=1;strokeColor=none;fillColor=none;container=0;" vertex="1" parent="1">
          <mxGeometry x="-1060" y="461.5" width="180" height="60" as="geometry" />
        </mxCell>
        <mxCell id="z8xeSYhRxmCJGiF4I9nz-30" style="edgeStyle=orthogonalEdgeStyle;rounded=0;orthogonalLoop=1;jettySize=auto;html=1;exitX=0.5;exitY=0;exitDx=0;exitDy=0;exitPerimeter=0;strokeWidth=2;flowAnimation=1;" edge="1" parent="1" source="pGzdC_9W3K5xxJKS2U8a-2" target="z8xeSYhRxmCJGiF4I9nz-14">
          <mxGeometry relative="1" as="geometry">
            <Array as="points">
              <mxPoint x="-1122" y="425" />
              <mxPoint x="-820" y="425" />
              <mxPoint x="-820" y="539" />
            </Array>
          </mxGeometry>
        </mxCell>
        <mxCell id="pGzdC_9W3K5xxJKS2U8a-2" value="MERN_Frontend" style="outlineConnect=0;dashed=0;verticalLabelPosition=bottom;verticalAlign=top;align=center;html=1;shape=mxgraph.aws3.ec2;fillColor=#F58534;gradientColor=none;container=0;" parent="1" vertex="1">
          <mxGeometry x="-1160" y="445" width="76.5" height="93" as="geometry" />
        </mxCell>
        <mxCell id="z8xeSYhRxmCJGiF4I9nz-31" style="edgeStyle=orthogonalEdgeStyle;rounded=0;orthogonalLoop=1;jettySize=auto;html=1;exitX=0.5;exitY=1;exitDx=0;exitDy=0;exitPerimeter=0;strokeWidth=2;flowAnimation=1;" edge="1" parent="1" source="z8xeSYhRxmCJGiF4I9nz-1" target="z8xeSYhRxmCJGiF4I9nz-14">
          <mxGeometry relative="1" as="geometry">
            <mxPoint x="-730" y="540" as="targetPoint" />
            <Array as="points">
              <mxPoint x="-1122" y="710" />
              <mxPoint x="-820" y="710" />
              <mxPoint x="-820" y="539" />
            </Array>
          </mxGeometry>
        </mxCell>
        <mxCell id="z8xeSYhRxmCJGiF4I9nz-1" value="MERN_Frontend_1" style="outlineConnect=0;dashed=0;verticalLabelPosition=bottom;verticalAlign=top;align=center;html=1;shape=mxgraph.aws3.ec2;fillColor=#F58534;gradientColor=none;container=0;" vertex="1" parent="1">
          <mxGeometry x="-1160" y="585" width="76.5" height="93" as="geometry" />
        </mxCell>
        <mxCell id="z8xeSYhRxmCJGiF4I9nz-9" value="Public IP : 3.110.112.30&lt;br&gt;Private IP : 172.31.19.99&lt;br&gt;&lt;span style=&quot;background-color: initial;&quot;&gt;Availability zone : ap-south-1b&lt;/span&gt;" style="text;html=1;align=left;verticalAlign=middle;resizable=0;points=[];autosize=1;strokeColor=none;fillColor=none;container=0;" vertex="1" parent="1">
          <mxGeometry x="-1060" y="601.5" width="180" height="60" as="geometry" />
        </mxCell>
        <mxCell id="z8xeSYhRxmCJGiF4I9nz-34" style="edgeStyle=entityRelationEdgeStyle;rounded=0;orthogonalLoop=1;jettySize=auto;html=1;startArrow=none;endArrow=none;segment=10;curved=1;sourcePerimeterSpacing=0;targetPerimeterSpacing=0;" edge="1" parent="1" source="z8xeSYhRxmCJGiF4I9nz-32" target="pGzdC_9W3K5xxJKS2U8a-11">
          <mxGeometry relative="1" as="geometry" />
        </mxCell>
        <mxCell id="z8xeSYhRxmCJGiF4I9nz-32" value="adarshkumars.co.in" style="whiteSpace=wrap;html=1;rounded=1;arcSize=50;align=center;verticalAlign=middle;strokeWidth=1;autosize=1;spacing=4;treeFolding=0;treeMoving=1;newEdgeStyle={&quot;edgeStyle&quot;:&quot;entityRelationEdgeStyle&quot;,&quot;startArrow&quot;:&quot;none&quot;,&quot;endArrow&quot;:&quot;none&quot;,&quot;segment&quot;:10,&quot;curved&quot;:1,&quot;sourcePerimeterSpacing&quot;:0,&quot;targetPerimeterSpacing&quot;:0};" vertex="1" parent="1">
          <mxGeometry x="-1610" y="538" width="130" height="30" as="geometry" />
        </mxCell>
        <mxCell id="pGzdC_9W3K5xxJKS2U8a-13" value="MongoDB" style="dashed=0;outlineConnect=0;html=1;align=center;labelPosition=center;verticalLabelPosition=bottom;verticalAlign=top;shape=mxgraph.weblogos.mongodb;container=0;" parent="1" vertex="1">
          <mxGeometry x="-90" y="505" width="41.2" height="86.2" as="geometry" />
        </mxCell>
        <mxCell id="z8xeSYhRxmCJGiF4I9nz-14" value="&lt;font color=&quot;#ffffff&quot;&gt;Backend LB&lt;/font&gt;" style="sketch=0;outlineConnect=0;fontColor=#232F3E;gradientColor=none;fillColor=#8C4FFF;strokeColor=none;dashed=0;verticalLabelPosition=bottom;verticalAlign=top;align=center;html=1;fontSize=12;fontStyle=0;aspect=fixed;pointerEvents=1;shape=mxgraph.aws4.application_load_balancer;container=0;" vertex="1" parent="1">
          <mxGeometry x="-690" y="502" width="74" height="74" as="geometry" />
        </mxCell>
        <mxCell id="z8xeSYhRxmCJGiF4I9nz-15" value="" style="endArrow=none;dashed=1;html=1;rounded=0;strokeWidth=3;flowAnimation=1;" edge="1" parent="1" target="pGzdC_9W3K5xxJKS2U8a-3">
          <mxGeometry width="50" height="50" relative="1" as="geometry">
            <mxPoint x="-616" y="532" as="sourcePoint" />
            <mxPoint x="-490" y="479" as="targetPoint" />
          </mxGeometry>
        </mxCell>
        <mxCell id="z8xeSYhRxmCJGiF4I9nz-18" value="" style="endArrow=none;dashed=1;html=1;rounded=0;strokeWidth=3;flowAnimation=1;entryX=0;entryY=0.5;entryDx=0;entryDy=0;entryPerimeter=0;" edge="1" parent="1" target="z8xeSYhRxmCJGiF4I9nz-3">
          <mxGeometry width="50" height="50" relative="1" as="geometry">
            <mxPoint x="-616" y="555" as="sourcePoint" />
            <mxPoint x="-490" y="604" as="targetPoint" />
          </mxGeometry>
        </mxCell>
        <mxCell id="z8xeSYhRxmCJGiF4I9nz-22" style="edgeStyle=orthogonalEdgeStyle;rounded=0;orthogonalLoop=1;jettySize=auto;html=1;exitX=0.5;exitY=0;exitDx=0;exitDy=0;exitPerimeter=0;flowAnimation=1;strokeWidth=3;" edge="1" parent="1" source="pGzdC_9W3K5xxJKS2U8a-3" target="pGzdC_9W3K5xxJKS2U8a-13">
          <mxGeometry relative="1" as="geometry">
            <Array as="points">
              <mxPoint x="-442" y="415" />
              <mxPoint x="-130" y="415" />
              <mxPoint x="-130" y="548" />
            </Array>
          </mxGeometry>
        </mxCell>
        <mxCell id="z8xeSYhRxmCJGiF4I9nz-23" style="edgeStyle=orthogonalEdgeStyle;rounded=0;orthogonalLoop=1;jettySize=auto;html=1;exitX=0.5;exitY=1;exitDx=0;exitDy=0;exitPerimeter=0;strokeWidth=3;flowAnimation=1;" edge="1" parent="1" source="z8xeSYhRxmCJGiF4I9nz-3" target="pGzdC_9W3K5xxJKS2U8a-13">
          <mxGeometry relative="1" as="geometry">
            <mxPoint x="-70" y="615" as="targetPoint" />
            <Array as="points">
              <mxPoint x="-442" y="695" />
              <mxPoint x="-130" y="695" />
              <mxPoint x="-130" y="575" />
            </Array>
          </mxGeometry>
        </mxCell>
        <mxCell id="pGzdC_9W3K5xxJKS2U8a-8" value="EC2&amp;nbsp; Backend" style="points=[[0,0],[0.25,0],[0.5,0],[0.75,0],[1,0],[1,0.25],[1,0.5],[1,0.75],[1,1],[0.75,1],[0.5,1],[0.25,1],[0,1],[0,0.75],[0,0.5],[0,0.25]];outlineConnect=0;gradientColor=none;html=1;whiteSpace=wrap;fontSize=12;fontStyle=0;container=0;pointerEvents=0;collapsible=0;recursiveResize=0;shape=mxgraph.aws4.group;grIcon=mxgraph.aws4.group_ec2_instance_contents;strokeColor=#D86613;fillColor=none;verticalAlign=top;align=left;spacingLeft=30;fontColor=#D86613;dashed=0;" parent="1" vertex="1">
          <mxGeometry x="-510" y="385" width="340" height="330" as="geometry" />
        </mxCell>
        <mxCell id="z8xeSYhRxmCJGiF4I9nz-7" value="Public IP : 43.204.219.34&lt;br&gt;Private IP : 173.31.7.92&lt;br&gt;&lt;div style=&quot;&quot;&gt;&lt;span style=&quot;background-color: initial;&quot;&gt;Availability zone : ap-south-1b&lt;/span&gt;&lt;/div&gt;" style="text;html=1;align=left;verticalAlign=middle;resizable=0;points=[];autosize=1;strokeColor=none;fillColor=none;container=0;" vertex="1" parent="1">
          <mxGeometry x="-370" y="435" width="180" height="60" as="geometry" />
        </mxCell>
        <mxCell id="pGzdC_9W3K5xxJKS2U8a-3" value="MERN_Backend" style="outlineConnect=0;dashed=0;verticalLabelPosition=bottom;verticalAlign=top;align=center;html=1;shape=mxgraph.aws3.ec2;fillColor=#F58534;gradientColor=none;container=0;" parent="1" vertex="1">
          <mxGeometry x="-480" y="415" width="76.5" height="93" as="geometry" />
        </mxCell>
        <mxCell id="z8xeSYhRxmCJGiF4I9nz-3" value="MERN_Backend_1" style="outlineConnect=0;dashed=0;verticalLabelPosition=bottom;verticalAlign=top;align=center;html=1;shape=mxgraph.aws3.ec2;fillColor=#F58534;gradientColor=none;container=0;" vertex="1" parent="1">
          <mxGeometry x="-480" y="555" width="76.5" height="93" as="geometry" />
        </mxCell>
        <mxCell id="z8xeSYhRxmCJGiF4I9nz-19" value="Public IP :&amp;nbsp;65.1.93.71&lt;br&gt;Private IP : 173.31.56.45&lt;br&gt;&lt;div style=&quot;&quot;&gt;&lt;span style=&quot;background-color: initial;&quot;&gt;Availability zone : ap-south-1b&lt;/span&gt;&lt;/div&gt;" style="text;html=1;align=left;verticalAlign=middle;resizable=0;points=[];autosize=1;strokeColor=none;fillColor=none;container=0;" vertex="1" parent="1">
          <mxGeometry x="-370" y="571.5" width="180" height="60" as="geometry" />
        </mxCell>
        <mxCell id="z8xeSYhRxmCJGiF4I9nz-35" value="&lt;font style=&quot;font-size: 10px;&quot;&gt;back.adarshkumars.co.in&lt;/font&gt;" style="whiteSpace=wrap;html=1;rounded=1;arcSize=50;align=center;verticalAlign=middle;strokeWidth=1;autosize=1;spacing=4;treeFolding=0;treeMoving=1;newEdgeStyle={&quot;edgeStyle&quot;:&quot;entityRelationEdgeStyle&quot;,&quot;startArrow&quot;:&quot;none&quot;,&quot;endArrow&quot;:&quot;none&quot;,&quot;segment&quot;:10,&quot;curved&quot;:1,&quot;sourcePerimeterSpacing&quot;:0,&quot;targetPerimeterSpacing&quot;:0};" vertex="1" parent="1">
          <mxGeometry x="-810" y="508" width="115" height="18" as="geometry" />
        </mxCell>
        <mxCell id="z8xeSYhRxmCJGiF4I9nz-36" value="" style="shape=image;verticalLabelPosition=bottom;labelBackgroundColor=default;verticalAlign=top;aspect=fixed;imageAspect=0;image=https://o.remove.bg/downloads/6f60f4dd-db0d-46fa-9847-877a87a5db8b/image-removebg-preview.png;" vertex="1" parent="1">
          <mxGeometry x="-1473.68" y="516" width="93.68" height="34.34" as="geometry" />
        </mxCell>
      </root>
    </mxGraphModel>
  </diagram>
</mxfile>
